# xmcd
#
# Track frame offsets:
#	150
#	13697
#	33969
#	47764
#	66991
#	85632
#	104310
#	122122
#	138640
#	156260
#	178697
#
# Disc length: 2669 seconds
#
# Revision: 0
# Processed by: cddbd v1.4PL0 Copyright (c) Steve Scherf et al.
# Submitted via: dBpowerAMP V4.0
#
DISCID=910a6b0b
DTITLE=Malford Milligan - The Gospel According To Austin, Vol. 2
DYEAR=1900
DGENRE=Gospel
TTITLE0=Dark Was The Night
TTITLE1=I've Never Been To Seminary
TTITLE2=I'm Too Close
TTITLE3=Everything's Gonna Be Alright
TTITLE4=Death Don't Have No Mercy
TTITLE5=All Of My Life
TTITLE6=Lo I Be With You
TTITLE7=God Is Able
TTITLE8=Hem Of His Garmet
TTITLE9=God's Gonna Make A Way
TTITLE10=Stand The Test In The Judgement
EXTD=The Gospel According To Austin, Vol. 2
EXTT0=
EXTT1=
EXTT2=
EXTT3=
EXTT4=
EXTT5=
EXTT6=
EXTT7=
EXTT8=
EXTT9=
EXTT10=
PLAYORDER=
